<mxfile host="app.diagrams.net" agent="Mozilla/5.0 (Windows NT 10.0; Win64; x64) AppleWebKit/537.36 (KHTML, like Gecko) Chrome/132.0.0.0 Safari/537.36" version="26.0.15">
  <diagram name="第 1 页" id="DEmpop7KBxRRByBiiz_0">
    <mxGraphModel dx="1434" dy="814" grid="1" gridSize="10" guides="1" tooltips="1" connect="1" arrows="1" fold="1" page="1" pageScale="1" pageWidth="827" pageHeight="1169" math="0" shadow="0">
      <root>
        <mxCell id="0" />
        <mxCell id="1" parent="0" />
        <mxCell id="naxF8TnlvG9lC6vvGT33-1" value="" style="rounded=0;whiteSpace=wrap;html=1;fillColor=#d5e8d4;strokeColor=#82b366;" parent="1" vertex="1">
          <mxGeometry x="190" y="30" width="990" height="800" as="geometry" />
        </mxCell>
        <mxCell id="naxF8TnlvG9lC6vvGT33-3" value="" style="rounded=0;whiteSpace=wrap;html=1;fillColor=#f8cecc;strokeColor=#b85450;" parent="1" vertex="1">
          <mxGeometry x="310" y="720" width="850" height="90" as="geometry" />
        </mxCell>
        <mxCell id="naxF8TnlvG9lC6vvGT33-2" value="&lt;b&gt;&lt;font style=&quot;font-size: 16px;&quot;&gt;基础能力层&lt;/font&gt;&lt;/b&gt;" style="rounded=1;whiteSpace=wrap;html=1;fillColor=#fff2cc;strokeColor=#d6b656;" parent="1" vertex="1">
          <mxGeometry x="210" y="720" width="90" height="90" as="geometry" />
        </mxCell>
        <mxCell id="naxF8TnlvG9lC6vvGT33-6" value="鼠标点击" style="rounded=0;whiteSpace=wrap;html=1;fillColor=#bac8d3;strokeColor=#23445d;" parent="1" vertex="1">
          <mxGeometry x="641" y="741" width="64" height="20" as="geometry" />
        </mxCell>
        <mxCell id="naxF8TnlvG9lC6vvGT33-7" value="鼠标移动" style="rounded=0;whiteSpace=wrap;html=1;fillColor=#bac8d3;strokeColor=#23445d;" parent="1" vertex="1">
          <mxGeometry x="510" y="772" width="64" height="20" as="geometry" />
        </mxCell>
        <mxCell id="naxF8TnlvG9lC6vvGT33-9" value="键盘输入" style="rounded=0;whiteSpace=wrap;html=1;fillColor=#bac8d3;strokeColor=#23445d;" parent="1" vertex="1">
          <mxGeometry x="641" y="771" width="64" height="20" as="geometry" />
        </mxCell>
        <mxCell id="naxF8TnlvG9lC6vvGT33-11" value="截屏" style="rounded=0;whiteSpace=wrap;html=1;fillColor=#bac8d3;strokeColor=#23445d;" parent="1" vertex="1">
          <mxGeometry x="993" y="740" width="64" height="20" as="geometry" />
        </mxCell>
        <mxCell id="naxF8TnlvG9lC6vvGT33-14" value="进程管理" style="rounded=0;whiteSpace=wrap;html=1;fillColor=#bac8d3;strokeColor=#23445d;" parent="1" vertex="1">
          <mxGeometry x="378" y="740" width="64" height="20" as="geometry" />
        </mxCell>
        <mxCell id="naxF8TnlvG9lC6vvGT33-15" value="窗口激活" style="rounded=0;whiteSpace=wrap;html=1;fillColor=#bac8d3;strokeColor=#23445d;" parent="1" vertex="1">
          <mxGeometry x="510" y="740" width="64" height="20" as="geometry" />
        </mxCell>
        <mxCell id="naxF8TnlvG9lC6vvGT33-16" value="http/tcp调用" style="rounded=0;whiteSpace=wrap;html=1;fillColor=#bac8d3;strokeColor=#23445d;" parent="1" vertex="1">
          <mxGeometry x="378" y="772" width="78" height="20" as="geometry" />
        </mxCell>
        <mxCell id="naxF8TnlvG9lC6vvGT33-18" value="坐标像素读取" style="rounded=0;whiteSpace=wrap;html=1;fillColor=#bac8d3;strokeColor=#23445d;" parent="1" vertex="1">
          <mxGeometry x="754" y="740" width="78" height="20" as="geometry" />
        </mxCell>
        <mxCell id="naxF8TnlvG9lC6vvGT33-20" value="窗口宽高读取" style="rounded=0;whiteSpace=wrap;html=1;fillColor=#bac8d3;strokeColor=#23445d;" parent="1" vertex="1">
          <mxGeometry x="754" y="770" width="80" height="20" as="geometry" />
        </mxCell>
        <mxCell id="naxF8TnlvG9lC6vvGT33-24" value="图像识别" style="rounded=0;whiteSpace=wrap;html=1;fillColor=#bac8d3;strokeColor=#23445d;" parent="1" vertex="1">
          <mxGeometry x="880" y="740" width="64" height="20" as="geometry" />
        </mxCell>
        <mxCell id="naxF8TnlvG9lC6vvGT33-30" value="文本识别" style="rounded=0;whiteSpace=wrap;html=1;fillColor=#bac8d3;strokeColor=#23445d;" parent="1" vertex="1">
          <mxGeometry x="880" y="769" width="64" height="20" as="geometry" />
        </mxCell>
        <mxCell id="naxF8TnlvG9lC6vvGT33-34" value="&lt;b&gt;&lt;font style=&quot;font-size: 16px;&quot;&gt;通用能力层&lt;/font&gt;&lt;/b&gt;" style="rounded=1;whiteSpace=wrap;html=1;fillColor=#fff2cc;strokeColor=#d6b656;" parent="1" vertex="1">
          <mxGeometry x="210" y="575" width="90" height="100" as="geometry" />
        </mxCell>
        <mxCell id="naxF8TnlvG9lC6vvGT33-35" value="" style="rounded=0;whiteSpace=wrap;html=1;fillColor=#f8cecc;strokeColor=#b85450;" parent="1" vertex="1">
          <mxGeometry x="310" y="575" width="850" height="100" as="geometry" />
        </mxCell>
        <mxCell id="naxF8TnlvG9lC6vvGT33-36" value="" style="shape=flexArrow;endArrow=classic;html=1;rounded=0;exitX=0.489;exitY=0.017;exitDx=0;exitDy=0;exitPerimeter=0;fillColor=#60a917;strokeColor=#2D7600;" parent="1" edge="1">
          <mxGeometry width="50" height="50" relative="1" as="geometry">
            <mxPoint x="741.6500000000001" y="718.06" as="sourcePoint" />
            <mxPoint x="741" y="680" as="targetPoint" />
          </mxGeometry>
        </mxCell>
        <mxCell id="naxF8TnlvG9lC6vvGT33-38" value="以图查图" style="rounded=0;whiteSpace=wrap;html=1;fillColor=#bac8d3;strokeColor=#23445d;" parent="1" vertex="1">
          <mxGeometry x="806" y="601" width="64" height="20" as="geometry" />
        </mxCell>
        <mxCell id="naxF8TnlvG9lC6vvGT33-39" value="以图查文" style="rounded=0;whiteSpace=wrap;html=1;fillColor=#bac8d3;strokeColor=#23445d;" parent="1" vertex="1">
          <mxGeometry x="959" y="601" width="64" height="20" as="geometry" />
        </mxCell>
        <mxCell id="naxF8TnlvG9lC6vvGT33-41" value="以文查图" style="rounded=0;whiteSpace=wrap;html=1;fillColor=#bac8d3;strokeColor=#23445d;" parent="1" vertex="1">
          <mxGeometry x="806" y="631" width="64" height="20" as="geometry" />
        </mxCell>
        <mxCell id="naxF8TnlvG9lC6vvGT33-43" value="以文查文" style="rounded=0;whiteSpace=wrap;html=1;fillColor=#bac8d3;strokeColor=#23445d;" parent="1" vertex="1">
          <mxGeometry x="959" y="631" width="64" height="20" as="geometry" />
        </mxCell>
        <mxCell id="naxF8TnlvG9lC6vvGT33-46" value="获取下拉框文本" style="rounded=0;whiteSpace=wrap;html=1;fillColor=#bac8d3;strokeColor=#23445d;" parent="1" vertex="1">
          <mxGeometry x="584" y="631" width="98" height="20" as="geometry" />
        </mxCell>
        <mxCell id="naxF8TnlvG9lC6vvGT33-50" value="执行ssh" style="rounded=0;whiteSpace=wrap;html=1;fillColor=#bac8d3;strokeColor=#23445d;" parent="1" vertex="1">
          <mxGeometry x="398" y="601" width="98" height="20" as="geometry" />
        </mxCell>
        <mxCell id="naxF8TnlvG9lC6vvGT33-53" value="桌面快照" style="rounded=0;whiteSpace=wrap;html=1;fillColor=#bac8d3;strokeColor=#23445d;" parent="1" vertex="1">
          <mxGeometry x="585" y="601" width="98" height="20" as="geometry" />
        </mxCell>
        <mxCell id="naxF8TnlvG9lC6vvGT33-55" value="代填输入框" style="rounded=0;whiteSpace=wrap;html=1;fillColor=#bac8d3;strokeColor=#23445d;" parent="1" vertex="1">
          <mxGeometry x="397" y="631" width="98" height="20" as="geometry" />
        </mxCell>
        <mxCell id="naxF8TnlvG9lC6vvGT33-57" value="&lt;b&gt;&lt;font style=&quot;font-size: 16px;&quot;&gt;业务能力层&lt;/font&gt;&lt;/b&gt;" style="rounded=1;whiteSpace=wrap;html=1;fillColor=#fff2cc;strokeColor=#d6b656;" parent="1" vertex="1">
          <mxGeometry x="210" y="426" width="90" height="100" as="geometry" />
        </mxCell>
        <mxCell id="naxF8TnlvG9lC6vvGT33-58" value="" style="shape=flexArrow;endArrow=classic;html=1;rounded=0;exitX=0.489;exitY=0.017;exitDx=0;exitDy=0;exitPerimeter=0;fillColor=#60a917;strokeColor=#2D7600;" parent="1" edge="1">
          <mxGeometry width="50" height="50" relative="1" as="geometry">
            <mxPoint x="739.6500000000001" y="569.06" as="sourcePoint" />
            <mxPoint x="739" y="531" as="targetPoint" />
          </mxGeometry>
        </mxCell>
        <mxCell id="naxF8TnlvG9lC6vvGT33-59" value="" style="rounded=0;whiteSpace=wrap;html=1;fillColor=#dae8fc;strokeColor=#6c8ebf;" parent="1" vertex="1">
          <mxGeometry x="310" y="426" width="850" height="101" as="geometry" />
        </mxCell>
        <mxCell id="naxF8TnlvG9lC6vvGT33-60" value="" style="rounded=1;whiteSpace=wrap;html=1;fillColor=#b0e3e6;strokeColor=#0e8088;" parent="1" vertex="1">
          <mxGeometry x="352" y="437" width="166" height="80" as="geometry" />
        </mxCell>
        <mxCell id="naxF8TnlvG9lC6vvGT33-62" value="&lt;b&gt;&lt;font style=&quot;font-size: 14px;&quot;&gt;cpnl&lt;/font&gt;&lt;/b&gt;" style="text;html=1;align=center;verticalAlign=middle;resizable=0;points=[];autosize=1;strokeColor=none;fillColor=none;" parent="1" vertex="1">
          <mxGeometry x="352" y="437" width="50" height="30" as="geometry" />
        </mxCell>
        <mxCell id="naxF8TnlvG9lC6vvGT33-64" value="设置function key" style="rounded=0;whiteSpace=wrap;html=1;fillColor=#bac8d3;strokeColor=#23445d;" parent="1" vertex="1">
          <mxGeometry x="371" y="467" width="120" height="20" as="geometry" />
        </mxCell>
        <mxCell id="naxF8TnlvG9lC6vvGT33-65" value="监控程序状态" style="rounded=0;whiteSpace=wrap;html=1;fillColor=#bac8d3;strokeColor=#23445d;" parent="1" vertex="1">
          <mxGeometry x="364.5" y="490" width="133" height="20" as="geometry" />
        </mxCell>
        <mxCell id="naxF8TnlvG9lC6vvGT33-66" value="" style="rounded=1;whiteSpace=wrap;html=1;fillColor=#b0e3e6;strokeColor=#0e8088;" parent="1" vertex="1">
          <mxGeometry x="540" y="437" width="128" height="80" as="geometry" />
        </mxCell>
        <mxCell id="naxF8TnlvG9lC6vvGT33-68" value="&lt;font style=&quot;font-size: 14px;&quot;&gt;&lt;b&gt;shmoo&lt;/b&gt;&lt;/font&gt;" style="text;html=1;align=center;verticalAlign=middle;resizable=0;points=[];autosize=1;strokeColor=none;fillColor=none;" parent="1" vertex="1">
          <mxGeometry x="540" y="437" width="70" height="30" as="geometry" />
        </mxCell>
        <mxCell id="naxF8TnlvG9lC6vvGT33-71" value="对比结果" style="rounded=0;whiteSpace=wrap;html=1;fillColor=#bac8d3;strokeColor=#23445d;" parent="1" vertex="1">
          <mxGeometry x="556" y="467" width="95" height="20" as="geometry" />
        </mxCell>
        <mxCell id="naxF8TnlvG9lC6vvGT33-75" value="" style="shape=flexArrow;endArrow=classic;html=1;rounded=0;exitX=0.489;exitY=0.017;exitDx=0;exitDy=0;exitPerimeter=0;fillColor=#60a917;strokeColor=#2D7600;" parent="1" edge="1">
          <mxGeometry width="50" height="50" relative="1" as="geometry">
            <mxPoint x="736.6500000000001" y="421.05999999999995" as="sourcePoint" />
            <mxPoint x="737" y="352" as="targetPoint" />
          </mxGeometry>
        </mxCell>
        <mxCell id="naxF8TnlvG9lC6vvGT33-76" value="&lt;b&gt;http api&lt;/b&gt;" style="text;html=1;align=center;verticalAlign=middle;resizable=0;points=[];autosize=1;strokeColor=none;fillColor=none;" parent="1" vertex="1">
          <mxGeometry x="735" y="372" width="70" height="30" as="geometry" />
        </mxCell>
        <mxCell id="naxF8TnlvG9lC6vvGT33-77" value="&lt;b&gt;&lt;font style=&quot;font-size: 16px;&quot;&gt;用例层&lt;/font&gt;&lt;/b&gt;" style="rounded=1;whiteSpace=wrap;html=1;fillColor=#fff2cc;strokeColor=#d6b656;" parent="1" vertex="1">
          <mxGeometry x="210" y="182" width="90" height="162" as="geometry" />
        </mxCell>
        <mxCell id="naxF8TnlvG9lC6vvGT33-78" value="" style="rounded=0;whiteSpace=wrap;html=1;fillColor=#dae8fc;strokeColor=#6c8ebf;" parent="1" vertex="1">
          <mxGeometry x="310" y="182" width="850" height="162" as="geometry" />
        </mxCell>
        <mxCell id="naxF8TnlvG9lC6vvGT33-79" value="" style="rounded=1;whiteSpace=wrap;html=1;fillColor=#e1d5e7;strokeColor=#9673a6;" parent="1" vertex="1">
          <mxGeometry x="333" y="192" width="627" height="140" as="geometry" />
        </mxCell>
        <mxCell id="naxF8TnlvG9lC6vvGT33-80" value="&lt;b&gt;&lt;font style=&quot;font-size: 14px;&quot;&gt;示例&lt;/font&gt;&lt;/b&gt;" style="text;html=1;align=center;verticalAlign=middle;resizable=0;points=[];autosize=1;strokeColor=none;fillColor=none;" parent="1" vertex="1">
          <mxGeometry x="333" y="192" width="50" height="30" as="geometry" />
        </mxCell>
        <mxCell id="naxF8TnlvG9lC6vvGT33-84" value="打开mobax" style="rounded=0;whiteSpace=wrap;html=1;" parent="1" vertex="1">
          <mxGeometry x="346" y="230" width="55" height="50" as="geometry" />
        </mxCell>
        <mxCell id="naxF8TnlvG9lC6vvGT33-85" value="新建窗口" style="rounded=0;whiteSpace=wrap;html=1;" parent="1" vertex="1">
          <mxGeometry x="422" y="230" width="55" height="50" as="geometry" />
        </mxCell>
        <mxCell id="naxF8TnlvG9lC6vvGT33-86" value="ssh登录" style="rounded=0;whiteSpace=wrap;html=1;" parent="1" vertex="1">
          <mxGeometry x="499.5" y="230" width="55" height="50" as="geometry" />
        </mxCell>
        <mxCell id="naxF8TnlvG9lC6vvGT33-87" value="执行startfs" style="rounded=0;whiteSpace=wrap;html=1;" parent="1" vertex="1">
          <mxGeometry x="580" y="230" width="55" height="50" as="geometry" />
        </mxCell>
        <mxCell id="naxF8TnlvG9lC6vvGT33-90" value="激活tbox" style="rounded=0;whiteSpace=wrap;html=1;" parent="1" vertex="1">
          <mxGeometry x="659" y="230" width="55" height="50" as="geometry" />
        </mxCell>
        <mxCell id="naxF8TnlvG9lC6vvGT33-91" value="点击open cpnl" style="rounded=0;whiteSpace=wrap;html=1;" parent="1" vertex="1">
          <mxGeometry x="737" y="230" width="55" height="50" as="geometry" />
        </mxCell>
        <mxCell id="naxF8TnlvG9lC6vvGT33-92" value="填写program目录" style="rounded=0;whiteSpace=wrap;html=1;" parent="1" vertex="1">
          <mxGeometry x="812" y="230" width="55" height="50" as="geometry" />
        </mxCell>
        <mxCell id="naxF8TnlvG9lC6vvGT33-93" value="点击start" style="rounded=0;whiteSpace=wrap;html=1;" parent="1" vertex="1">
          <mxGeometry x="889" y="230" width="55" height="50" as="geometry" />
        </mxCell>
        <mxCell id="jacO6SnG2mCcmvMMoIc0-2" value="持续集成..." style="rounded=0;whiteSpace=wrap;html=1;fillColor=#bac8d3;strokeColor=#23445d;" vertex="1" parent="1">
          <mxGeometry x="993" y="769" width="97" height="20" as="geometry" />
        </mxCell>
        <mxCell id="jacO6SnG2mCcmvMMoIc0-5" value="其他" style="rounded=1;whiteSpace=wrap;html=1;fillColor=#b0e3e6;strokeColor=#0e8088;" vertex="1" parent="1">
          <mxGeometry x="991.25" y="437" width="131.5" height="80" as="geometry" />
        </mxCell>
        <mxCell id="jacO6SnG2mCcmvMMoIc0-6" value="&lt;b&gt;&lt;font style=&quot;font-size: 14px;&quot;&gt;robot framework&lt;/font&gt;&lt;/b&gt;" style="rounded=1;whiteSpace=wrap;html=1;fillColor=#e1d5e7;strokeColor=#9673a6;" vertex="1" parent="1">
          <mxGeometry x="977" y="192" width="160" height="140" as="geometry" />
        </mxCell>
        <mxCell id="jacO6SnG2mCcmvMMoIc0-9" value="&lt;b&gt;&lt;font style=&quot;font-size: 24px;&quot;&gt;Jekins&lt;/font&gt;&lt;/b&gt;" style="rounded=0;whiteSpace=wrap;html=1;fillColor=#dae8fc;strokeColor=#6c8ebf;" vertex="1" parent="1">
          <mxGeometry x="310" y="40" width="850" height="52" as="geometry" />
        </mxCell>
        <mxCell id="jacO6SnG2mCcmvMMoIc0-10" value="" style="html=1;shadow=0;dashed=0;align=center;verticalAlign=middle;shape=mxgraph.arrows2.uTurnArrow;dy=11;arrowHead=43;dx2=25;rotation=-90;fillColor=#ffcd28;gradientColor=#ffa500;strokeColor=#d79b00;" vertex="1" parent="1">
          <mxGeometry x="695.75" y="104" width="78.5" height="67" as="geometry" />
        </mxCell>
        <mxCell id="jacO6SnG2mCcmvMMoIc0-11" value="&lt;b&gt;pull&lt;/b&gt;" style="text;html=1;align=center;verticalAlign=middle;resizable=0;points=[];autosize=1;strokeColor=none;fillColor=none;" vertex="1" parent="1">
          <mxGeometry x="764" y="122.5" width="40" height="30" as="geometry" />
        </mxCell>
        <mxCell id="jacO6SnG2mCcmvMMoIc0-12" value="" style="rounded=1;whiteSpace=wrap;html=1;fillColor=#b0e3e6;strokeColor=#0e8088;" vertex="1" parent="1">
          <mxGeometry x="690.5" y="436" width="127.5" height="80" as="geometry" />
        </mxCell>
        <mxCell id="jacO6SnG2mCcmvMMoIc0-13" value="&lt;font style=&quot;font-size: 14px;&quot;&gt;&lt;b&gt;wave&lt;/b&gt;&lt;/font&gt;" style="text;html=1;align=center;verticalAlign=middle;resizable=0;points=[];autosize=1;strokeColor=none;fillColor=none;" vertex="1" parent="1">
          <mxGeometry x="695.5" y="436" width="60" height="30" as="geometry" />
        </mxCell>
        <mxCell id="jacO6SnG2mCcmvMMoIc0-14" value="波形对比" style="rounded=0;whiteSpace=wrap;html=1;fillColor=#bac8d3;strokeColor=#23445d;" vertex="1" parent="1">
          <mxGeometry x="706.5" y="466" width="94.5" height="20" as="geometry" />
        </mxCell>
        <mxCell id="jacO6SnG2mCcmvMMoIc0-15" value="" style="rounded=1;whiteSpace=wrap;html=1;fillColor=#b0e3e6;strokeColor=#0e8088;" vertex="1" parent="1">
          <mxGeometry x="840.5" y="437" width="127.5" height="80" as="geometry" />
        </mxCell>
        <mxCell id="jacO6SnG2mCcmvMMoIc0-16" value="&lt;font style=&quot;font-size: 14px;&quot;&gt;&lt;b&gt;real wave&lt;/b&gt;&lt;/font&gt;" style="text;html=1;align=center;verticalAlign=middle;resizable=0;points=[];autosize=1;strokeColor=none;fillColor=none;" vertex="1" parent="1">
          <mxGeometry x="843" y="437" width="90" height="30" as="geometry" />
        </mxCell>
        <mxCell id="jacO6SnG2mCcmvMMoIc0-17" value="波形结果判断" style="rounded=0;whiteSpace=wrap;html=1;fillColor=#bac8d3;strokeColor=#23445d;" vertex="1" parent="1">
          <mxGeometry x="856.5" y="467" width="94.5" height="20" as="geometry" />
        </mxCell>
        <mxCell id="jacO6SnG2mCcmvMMoIc0-18" value="" style="shape=partialRectangle;whiteSpace=wrap;html=1;bottom=1;right=1;left=1;top=0;fillColor=none;routingCenterX=-0.5;strokeWidth=2;" vertex="1" parent="1">
          <mxGeometry x="340" y="272" width="300" height="20" as="geometry" />
        </mxCell>
        <mxCell id="jacO6SnG2mCcmvMMoIc0-19" value="&lt;b&gt;&lt;font style=&quot;font-size: 14px;&quot;&gt;startf&lt;span style=&quot;background-color: transparent; color: light-dark(rgb(0, 0, 0), rgb(255, 255, 255));&quot;&gt;s&lt;/span&gt;&lt;/font&gt;&lt;/b&gt;" style="text;html=1;align=center;verticalAlign=middle;resizable=0;points=[];autosize=1;strokeColor=none;fillColor=none;" vertex="1" parent="1">
          <mxGeometry x="448" y="290" width="70" height="30" as="geometry" />
        </mxCell>
        <mxCell id="jacO6SnG2mCcmvMMoIc0-20" value="" style="shape=partialRectangle;whiteSpace=wrap;html=1;bottom=1;right=1;left=1;top=0;fillColor=none;routingCenterX=-0.5;strokeWidth=2;" vertex="1" parent="1">
          <mxGeometry x="651" y="272" width="300" height="20" as="geometry" />
        </mxCell>
        <mxCell id="jacO6SnG2mCcmvMMoIc0-21" value="&lt;b&gt;&lt;font style=&quot;font-size: 14px;&quot;&gt;start program&lt;/font&gt;&lt;/b&gt;" style="text;html=1;align=center;verticalAlign=middle;resizable=0;points=[];autosize=1;strokeColor=none;fillColor=none;" vertex="1" parent="1">
          <mxGeometry x="746.5" y="292" width="110" height="30" as="geometry" />
        </mxCell>
      </root>
    </mxGraphModel>
  </diagram>
</mxfile>
